<mxfile host="app.diagrams.net" agent="Mozilla/5.0 (X11; Linux x86_64) AppleWebKit/537.36 (KHTML, like Gecko) Chrome/141.0.0.0 Safari/537.36" version="28.2.7">
  <diagram name="Page-1" id="-eReC8J6Z-i0cBsuQ-gS">
    <mxGraphModel dx="2578" dy="1444" grid="1" gridSize="10" guides="1" tooltips="1" connect="1" arrows="1" fold="1" page="1" pageScale="1" pageWidth="850" pageHeight="1100" math="0" shadow="0">
      <root>
        <mxCell id="0" />
        <mxCell id="1" parent="0" />
        <mxCell id="pKLbPoBtj13TyodH7jU0-1" value="&lt;font style=&quot;font-size: 10px;&quot;&gt;START&lt;/font&gt;" style="ellipse;whiteSpace=wrap;html=1;" parent="1" vertex="1">
          <mxGeometry x="360" y="40" width="80" height="40" as="geometry" />
        </mxCell>
        <mxCell id="pKLbPoBtj13TyodH7jU0-2" value="&lt;font style=&quot;font-size: 10px;&quot;&gt;Do you want to play a game of Blackjack?&lt;/font&gt;&lt;div&gt;&lt;font style=&quot;font-size: 10px;&quot;&gt;Type &#39;y&#39; or &#39;n&#39;:&lt;/font&gt;&lt;/div&gt;" style="shape=parallelogram;perimeter=parallelogramPerimeter;whiteSpace=wrap;html=1;fixedSize=1;" parent="1" vertex="1">
          <mxGeometry x="280" y="100" width="240" height="40" as="geometry" />
        </mxCell>
        <mxCell id="pKLbPoBtj13TyodH7jU0-3" value="" style="endArrow=classic;html=1;rounded=0;" parent="1" edge="1">
          <mxGeometry width="50" height="50" relative="1" as="geometry">
            <mxPoint x="399.66" y="80" as="sourcePoint" />
            <mxPoint x="400" y="100" as="targetPoint" />
            <Array as="points" />
          </mxGeometry>
        </mxCell>
        <mxCell id="pKLbPoBtj13TyodH7jU0-4" value="" style="endArrow=classic;html=1;rounded=0;entryX=0;entryY=0.5;entryDx=0;entryDy=0;" parent="1" target="pKLbPoBtj13TyodH7jU0-5" edge="1">
          <mxGeometry width="50" height="50" relative="1" as="geometry">
            <mxPoint x="510" y="119.66000000000003" as="sourcePoint" />
            <mxPoint x="540" y="120" as="targetPoint" />
          </mxGeometry>
        </mxCell>
        <mxCell id="pKLbPoBtj13TyodH7jU0-5" value="" style="rounded=0;whiteSpace=wrap;html=1;" parent="1" vertex="1">
          <mxGeometry x="570" y="100" width="270" height="40" as="geometry" />
        </mxCell>
        <mxCell id="pKLbPoBtj13TyodH7jU0-6" value="&lt;font style=&quot;font-size: 12px;&quot;&gt;else&lt;/font&gt;" style="text;html=1;whiteSpace=wrap;strokeColor=none;fillColor=none;align=center;verticalAlign=middle;rounded=0;" parent="1" vertex="1">
          <mxGeometry x="530" y="100" width="20" height="10" as="geometry" />
        </mxCell>
        <mxCell id="pKLbPoBtj13TyodH7jU0-8" value="&lt;font style=&quot;font-size: 10px;&quot;&gt;END&lt;/font&gt;" style="ellipse;whiteSpace=wrap;html=1;" parent="1" vertex="1">
          <mxGeometry x="150" y="100" width="80" height="40" as="geometry" />
        </mxCell>
        <mxCell id="pKLbPoBtj13TyodH7jU0-9" value="" style="endArrow=classic;html=1;rounded=0;" parent="1" edge="1">
          <mxGeometry width="50" height="50" relative="1" as="geometry">
            <mxPoint x="290" y="119.66000000000003" as="sourcePoint" />
            <mxPoint x="230" y="119.66000000000003" as="targetPoint" />
          </mxGeometry>
        </mxCell>
        <mxCell id="pKLbPoBtj13TyodH7jU0-10" value="&lt;font style=&quot;font-size: 12px;&quot;&gt;&#39;n&#39;&lt;/font&gt;" style="text;html=1;whiteSpace=wrap;strokeColor=none;fillColor=none;align=center;verticalAlign=middle;rounded=0;" parent="1" vertex="1">
          <mxGeometry x="250" y="100" width="20" height="10" as="geometry" />
        </mxCell>
      </root>
    </mxGraphModel>
  </diagram>
</mxfile>
